<?xml version="1.0" encoding="utf-8"?>
<!-- Generator: Adobe Illustrator 24.3.0, SVG Export Plug-In . SVG Version: 6.00 Build 0)  -->
<svg version="1.1" id="Layer_1" xmlns="http://www.w3.org/2000/svg" xmlns:xlink="http://www.w3.org/1999/xlink" x="0px" y="0px"
	 viewBox="0 0 841.89 595.28" style="enable-background:new 0 0 841.89 595.28;" xml:space="preserve">
<style type="text/css">
	.st0{opacity:0.5;fill:#E0E0E0;}
	.st1{fill:#F1F2F2;}
	.st2{font-family:'Satisfy-Regular';}
	.st3{font-size:16px;}
	.st4{opacity:0.5;fill:#F1F2F2;}
	.st5{opacity:0.5;fill:#E6E7E8;}
	.st6{opacity:0.5;fill:#F3BC86;}
</style>
<circle class="st0" cx="480.67" cy="138.17" r="59.72"/>
<text transform="matrix(1 0 0 1 343.6098 114.7134)" class="st1 st2 st3">Entrepreneurship</text>
<circle class="st4" cx="541.58" cy="138.17" r="59.72"/>
<circle class="st5" cx="511" cy="183.25" r="59.72"/>
<path class="st6" d="M540.26,138.17c0,21.86-11.74,40.97-29.26,51.37c-17.52-10.4-29.27-29.51-29.27-51.37
	c0-2.47,0.15-4.91,0.45-7.31c8.52-4.67,18.29-7.33,28.69-7.33c10.51,0,20.38,2.72,28.96,7.48
	C540.12,133.36,540.26,135.75,540.26,138.17z"/>
<text transform="matrix(1 0 0 1 579.7632 118.3556)" class="st1 st2 st3">Design</text>
<text transform="matrix(1 0 0 1 477.5635 234.2453)" class="st1 st2 st3">Technology</text>
</svg>
