<?xml version="1.0" encoding="utf-8"?>
<!-- Generator: Adobe Illustrator 24.3.0, SVG Export Plug-In . SVG Version: 6.00 Build 0)  -->
<svg version="1.1" id="Layer_1" xmlns="http://www.w3.org/2000/svg" xmlns:xlink="http://www.w3.org/1999/xlink" x="0px" y="0px"
	 viewBox="0 0 292 283" style="enable-background:new 0 0 292 283;" xml:space="preserve">
<style type="text/css">
	.st0{fill:#FAFAFA;}
</style>
<path class="st0" d="M52.5,18.2c22.1-4.7,28.8,19.6,56.1,15.6c17.9-2.6,25-14.6,55.4-19.5c9.1-1.5,13.7-2.2,17.1-1.2
	c23.1,6.6,15.6,48.1,38.8,86.8c25.5,42.4,60.1,35.4,66.4,65.4c7.1,34.1-30,80.8-63.3,81.7c-27.1,0.7-34.2-29.5-61.3-28.6
	c-34.9,1.1-41.1,51.8-76.6,56.2c-34,4.2-77.8-36.2-79.7-72.5C4.2,178,22,168.3,19.7,134.7c-1.5-22.2-9.6-23.3-10.2-42.9
	C8.7,61,27.3,23.5,52.5,18.2z"/>
</svg>
