<?xml version="1.0" encoding="utf-8"?>
<!-- Generator: Adobe Illustrator 24.3.0, SVG Export Plug-In . SVG Version: 6.00 Build 0)  -->
<svg version="1.1" id="Layer_1" xmlns="http://www.w3.org/2000/svg" xmlns:xlink="http://www.w3.org/1999/xlink" x="0px" y="0px"
	 viewBox="0 0 355 348.7" style="enable-background:new 0 0 355 348.7;" xml:space="preserve">
<style type="text/css">
	.st0{fill:#F3BC86;}
	.st1{opacity:0.64;}
	.st2{opacity:0.44;}
</style>
<path class="st0" d="M52.5,83.9c22.1-4.7,28.8,19.6,56.1,15.6c17.9-2.6,25-14.6,55.4-19.5c9.1-1.5,13.7-2.2,17.1-1.2
	c23.1,6.6,15.6,48.1,38.8,86.8C245.4,208,280,201,286.3,231c7.1,34.1-30,80.8-63.3,81.7c-27.1,0.7-34.2-29.5-61.3-28.6
	c-34.9,1.1-41.1,51.8-76.6,56.2c-34,4.2-77.8-36.2-79.7-72.5C4.2,243.7,22,234,19.7,200.4c-1.5-22.2-9.6-23.3-10.2-42.9
	C8.7,126.7,27.3,89.2,52.5,83.9z"/>
<g class="st1">
	<path class="st0" d="M332,36c-3.1-3.5-6.9-5.3-10.9-6.7c-8.5-2.9-16.6-2.1-24.5-0.2c-3.4,0.8-6.6,2.2-10,2.9c-4.2,0.8-8.2,2-12,3.4
		c-4.5,1.7-8.8,3.9-13.1,6.2c-4.3,2.3-8.8,4.2-13,6.8c-3.6,2.2-6.8,4.9-10.5,7c-0.2,0.2-0.4,0.4-0.1,0.7c0.5,0.5,0.9,0.4,1.3,0.2
		c2.8-0.8,5.4-2.3,7.6-4.1c3.4-2.7,7.6-3.9,11.4-5.8c3.1-1.6,6.4-3,9.4-4.7c2.7-1.5,5.8-2.1,8.5-3.7c1.9-1.1,4.1-1.5,6.2-2
		c1.8-0.4,3.6-0.8,5.4-1.3c4-1.1,8-2.4,12.2-3c6.8-0.9,13.7-1.3,20.9,1.1c3.5,1.2,6.5,3.3,9.3,5.6c1.8,1.5,2.9,4.2,4.2,6.4
		c0.6,1,1.9,1.8,1.4,3.1c-0.2,0.6,0.6,0.9,0.5,1.4c0.1,0.3,0.2,0.6,0.3,0.8c0.5,0.6,0.8,1.3,0.9,2c0.4,0.7,0.9,1.3,1.1,2l0,0
		c-0.2,0.6-0.8,1.3,0.5,1.5c0.1,1.1,0.2,2.2,0.3,3.2c0.1,0.7,0.5,1.2,1.2,1.4c1.5-0.3,1.4-1.4,1.3-2.7c-0.4-4.7-1.6-9.2-4.1-13.4
		c-0.5-0.9-1.3-1.5-1.5-2.5c-0.5-0.7-0.9-1.3-1.4-2C333.6,38.5,333.2,36.9,332,36z"/>
	<path class="st0" d="M237.2,54.8c0.2-2.6,1.1-5,1-7.6c0-1,0.4-2.5-1.4-2.9c-0.2,0.2-0.4,0.3-0.7,0.5c-1.3,2.3-2.3,4.7-2.6,7.5
		c-0.2,1.8-1.7,3.1-1.1,5.2c0.6,0.8,1.1,1.6,1.7,2.4c3.3,0,6.7,1,10,1.6c1,0.2,2,0.8,2.8-0.1c0.4-0.2,0.5-0.7,1-0.7
		c0.5-0.3,1.5-0.1,1.4-1c-0.2-1-1.1-0.7-1.8-0.9c-2.8-0.7-5.6-1.4-8.4-2C238.3,56.4,237.2,56.2,237.2,54.8z"/>
</g>
<g class="st2">
	<path d="M263.4,18.6c-0.1,0-0.2,0.1-0.2,0.1s-0.1,0-0.1-0.1c0,0-0.1-0.1-0.1-0.2s0-0.1,0-0.2c0-0.1,0-0.1,0-0.2s0-0.1,0-0.2
		c0-0.1,0-0.1,0.1-0.2s0.1-0.1,0.1-0.1c0.3-0.1,0.7-0.3,1-0.4c0.3-0.1,0.6-0.2,0.9-0.3c0.3-0.1,0.6-0.2,0.9-0.2c0.1,0,0.1,0,0.2,0
		c0.1,0,0.1,0,0.2,0c0.1,0,0.1,0,0.2-0.1c0,0,0.1,0,0.1,0c0.2,0,0.5-0.1,0.7-0.1c0.2,0,0.4-0.1,0.7-0.1c0.3,0,0.5-0.1,0.8-0.1
		c0,0.1,0.1,0.1,0.1,0.2c0,0,0,0.1,0,0.1c0,0,0,0.1,0,0.1c0,0,0,0.1-0.1,0.1s-0.1,0.1-0.1,0.1c-0.3,0-0.5,0.1-0.8,0.1
		c-0.2,0-0.5,0.1-0.6,0.1l-0.6,0.1c0,0.4-0.1,0.8-0.1,1.4c0,0.5-0.1,1.1-0.1,1.7s-0.1,1.2-0.1,1.8c0,0.6,0,1.1,0,1.6
		c0,0.5,0,0.9,0,1.3c0,0.2,0,0.4,0,0.6c0,0.2,0,0.4,0,0.6c0,0.2,0,0.4,0,0.5s0,0.3,0,0.5c-0.1,0.1-0.2,0.2-0.3,0.2
		c-0.1,0.1-0.2,0.1-0.3,0.1c-0.1,0-0.2,0.1-0.3,0.1c-0.2,0-0.3,0-0.4,0c-0.1,0-0.1-0.1-0.1-0.2c0-0.1,0-0.4,0-0.9c0-0.2,0-0.5,0-0.8
		c0-0.3,0-0.7,0-1.2c0-0.5,0-1,0-1.6c0-0.6,0-1.3,0.1-2.1l0.1-3.3c-0.2,0.1-0.4,0.2-0.7,0.2c-0.2,0.1-0.4,0.2-0.6,0.3
		c-0.2,0.1-0.4,0.2-0.5,0.2C263.6,18.5,263.4,18.5,263.4,18.6z"/>
	<path d="M274.5,21.1c0-0.1,0.1-0.1,0.1-0.1c0.1,0,0.1,0,0.1,0c0,0,0.1,0.1,0.1,0.1s0,0.2,0,0.2c-0.1,0.2-0.2,0.5-0.4,0.7
		c-0.1,0.2-0.3,0.5-0.5,0.7c-0.2,0.2-0.4,0.5-0.5,0.7c-0.2,0.2-0.4,0.4-0.6,0.6c-0.2,0.2-0.4,0.3-0.5,0.3c-0.2,0-0.3,0-0.5-0.2
		c-0.2-0.1-0.3-0.3-0.3-0.5c0-0.2,0-0.5,0-0.8c0-0.2,0-0.4,0.1-0.7c0-0.3,0.1-0.6,0.1-0.8c0-0.3,0-0.5-0.1-0.6
		c-0.1-0.2-0.2-0.2-0.4-0.2c-0.1,0-0.2,0.1-0.4,0.2s-0.2,0.3-0.4,0.4c-0.1,0.2-0.2,0.3-0.3,0.5c-0.1,0.2-0.2,0.4-0.2,0.6
		c0,0.3,0,0.6,0,0.9c0,0.3,0,0.5,0,0.8s0,0.6,0,0.8c0,0-0.1,0.1-0.1,0.1c0,0-0.1,0-0.1,0.1c-0.1,0-0.1,0-0.2,0c-0.1,0-0.1,0-0.2,0
		c-0.1,0-0.1-0.1-0.2-0.1c-0.1,0-0.1-0.1-0.1-0.2c0-1.5,0.1-2.7,0.1-3.6c0-0.9,0-1.6,0-2.1c0-0.6,0-0.9,0-1.2c0-0.1,0-0.3,0-0.4
		c0-0.1,0-0.3-0.1-0.4c0-0.1-0.1-0.2-0.1-0.3c0.1-0.1,0.1-0.1,0.2-0.1c0.1,0,0.1-0.1,0.2-0.1c0.1,0,0.2-0.1,0.2-0.1s0.2-0.1,0.2-0.1
		c0.1,0,0.1,0,0.2,0c0.1,0,0.1,0,0.1,0.1c0.1,0,0.1,0.1,0.1,0.2s0,0.2,0,0.4c0,0.2,0,0.3,0,0.5c0,0.7-0.1,1.3-0.2,1.9
		c-0.1,0.6-0.1,1.3-0.2,2c0.1-0.2,0.2-0.4,0.3-0.5c0.1-0.2,0.2-0.4,0.4-0.5c0.1-0.2,0.3-0.3,0.5-0.4c0.2-0.1,0.4-0.2,0.6-0.3
		c0.1,0,0.2,0,0.3,0s0.2,0.1,0.3,0.1c0.1,0.1,0.2,0.2,0.2,0.3c0.1,0.1,0.1,0.3,0.2,0.5c0,0.1,0,0.3,0,0.4s0,0.3,0,0.5
		c0,0.2,0,0.4-0.1,0.6c0,0.2-0.1,0.4-0.1,0.7c0,0.2-0.1,0.4-0.1,0.5c0,0.1,0,0.2,0.1,0.3c0.1,0.1,0.2,0.1,0.4,0
		c0.2-0.1,0.5-0.4,0.8-0.8c0.1-0.1,0.2-0.2,0.3-0.4s0.2-0.3,0.3-0.4c0.1-0.1,0.2-0.3,0.2-0.4S274.5,21.2,274.5,21.1z"/>
	<path d="M280,20.2c-0.1,0.2-0.2,0.4-0.3,0.7s-0.2,0.5-0.4,0.8s-0.3,0.5-0.4,0.7c-0.1,0.2-0.2,0.4-0.3,0.5c-0.1,0.1-0.1,0.1-0.2,0.2
		c-0.1,0.1-0.2,0.1-0.3,0.1c-0.1,0-0.2,0-0.3,0s-0.2,0-0.3,0c-0.1,0-0.2-0.1-0.2-0.2c-0.1-0.1-0.1-0.2-0.2-0.3
		c-0.1-0.1-0.1-0.3-0.1-0.5c-0.1,0.3-0.3,0.6-0.5,0.8c-0.2,0.2-0.4,0.4-0.6,0.5c-0.2,0.1-0.4,0.2-0.7,0.3c-0.1,0-0.2,0-0.4,0
		c-0.1,0-0.3-0.1-0.4-0.3c-0.1-0.1-0.2-0.3-0.3-0.6c-0.1-0.2-0.1-0.5-0.1-0.9c0-0.5,0.1-0.9,0.2-1.4c0.2-0.4,0.3-0.8,0.6-1.1
		c0.2-0.3,0.4-0.6,0.7-0.8c0.2-0.2,0.4-0.3,0.6-0.3c0.2,0,0.4,0,0.5,0.1c0.1,0.1,0.2,0.2,0.3,0.3c0.1,0.1,0,0.4-0.1,0.6
		c0.1,0,0.2-0.1,0.3-0.1c0.1,0,0.1,0,0.2,0c0,0,0.1,0,0.1,0c0,0,0,0,0,0.1c0,0,0,0.1,0,0.3c0,0.1,0,0.3,0,0.5c0,0.2,0,0.5,0,0.9
		c0,0.1,0,0.1,0,0.2c0,0.1,0,0.1,0,0.2c0,0.1,0,0.1,0,0.2s0,0.2,0,0.3c0,0.1,0,0.1,0,0.2c0,0.1,0,0.2,0.1,0.2c0,0.1,0.1,0.1,0.1,0.1
		c0.1,0,0.1,0,0.2,0c0.1,0,0.2-0.1,0.3-0.2c0.1-0.1,0.2-0.3,0.3-0.4c0.1-0.2,0.2-0.4,0.3-0.6c0.1-0.2,0.2-0.4,0.3-0.6
		c0.1-0.2,0.2-0.4,0.3-0.5c0.1-0.2,0.1-0.3,0.2-0.3c0-0.1,0.1-0.1,0.2-0.2c0.1,0,0.1,0,0.1,0c0,0,0.1,0.1,0.1,0.2S280.1,20,280,20.2
		z M276.8,21.4c0-0.2,0-0.4,0-0.6s0-0.4,0-0.6c0-0.2,0-0.4,0-0.5c0-0.1,0-0.2-0.1-0.2c0,0-0.1,0-0.1,0.1c0,0-0.1,0-0.1,0.1
		c-0.1,0-0.1,0-0.2,0.1c0-0.1,0-0.2,0-0.3c0-0.1,0-0.1,0-0.2c0-0.1,0-0.1-0.1-0.1c-0.1-0.1-0.2,0-0.4,0.3c-0.2,0.2-0.3,0.6-0.5,1.1
		c-0.1,0.2-0.1,0.5-0.1,0.7c0,0.2,0,0.5,0,0.7c0,0.2,0,0.4,0.1,0.5c0,0.1,0.1,0.2,0.2,0.3c0.1,0.1,0.2,0.1,0.3,0.1
		c0.1,0,0.2-0.1,0.3-0.2c0.1-0.1,0.2-0.2,0.3-0.3c0.1-0.1,0.2-0.2,0.2-0.3c0.1-0.1,0.1-0.2,0.2-0.3
		C276.7,21.5,276.8,21.4,276.8,21.4z"/>
	<path d="M283.3,18.8c0-0.1,0.1-0.1,0.1-0.1c0,0,0.1,0,0.1,0c0,0,0.1,0.1,0.1,0.1c0,0.1,0,0.1,0,0.2c-0.1,0.3-0.2,0.7-0.4,1.1
		c-0.2,0.4-0.4,0.8-0.6,1.1c-0.2,0.4-0.4,0.7-0.7,0.9c-0.2,0.2-0.4,0.4-0.6,0.4c-0.3,0.1-0.5,0-0.7,0s-0.3-0.2-0.5-0.3
		c-0.1-0.1-0.2-0.3-0.3-0.4c-0.1-0.2-0.1-0.3-0.1-0.5c0-0.1,0-0.3-0.1-0.7c0-0.3,0-0.7,0-1.1c0-0.4,0-0.9,0-1.4c0-0.5,0-1,0-1.4
		c-0.1,0-0.3,0.1-0.4,0.1c-0.1,0-0.2,0.1-0.4,0.1c-0.2,0.1-0.5,0.1-0.7,0.1c-0.2,0-0.4,0-0.5-0.1c-0.1,0-0.1-0.1-0.1-0.1
		c0-0.1,0-0.1,0-0.2c0-0.1,0.1-0.1,0.1-0.2s0.1-0.1,0.1-0.1c0.1,0,0.3,0,0.5-0.1c0.2,0,0.4-0.1,0.6-0.1c0.1,0,0.3-0.1,0.4-0.1
		c0.1,0,0.3-0.1,0.4-0.1c0-0.4,0.1-0.7,0.1-1c0-0.3,0.1-0.5,0.1-0.6c0,0,0.1-0.1,0.1-0.1c0.1,0,0.2-0.1,0.2-0.1c0.1,0,0.2,0,0.3-0.1
		c0.1,0,0.2,0,0.2,0c0.1,0.1,0.1,0.2,0.1,0.5c0,0.3,0.1,0.6,0.1,1c0.3-0.1,0.6-0.1,0.9-0.1c0.3,0,0.5,0,0.7,0s0.3,0,0.5,0
		c0.1,0,0.2,0,0.3,0c0.1,0,0.1,0,0.1,0.1c0,0.1,0,0.1,0,0.2c0,0.1,0,0.1-0.1,0.2c-0.1,0.1-0.1,0.1-0.2,0.1c-0.1,0-0.2,0-0.3,0
		c-0.1,0-0.2,0-0.4,0c-0.1,0-0.3,0-0.5,0.1c-0.2,0-0.4,0.1-0.6,0.1c0,0-0.1,0-0.2,0c-0.1,0-0.1,0-0.2,0c0,0.1,0,0.3,0,0.4
		c0,0.1,0,0.3,0,0.4c0,0.3-0.1,0.7-0.1,1.1c0,0.3-0.1,0.7-0.2,1.2c-0.1,0.4-0.2,0.9-0.3,1.4c0,0.3,0.1,0.6,0.2,0.7
		c0.1,0.2,0.2,0.3,0.3,0.3c0.1,0.1,0.3,0.1,0.4,0.1c0.1,0,0.2-0.1,0.4-0.2c0.1-0.1,0.3-0.3,0.4-0.5c0.1-0.2,0.3-0.4,0.4-0.6
		c0.1-0.2,0.3-0.5,0.4-0.7c0.1-0.2,0.2-0.4,0.3-0.6C283.3,19,283.3,18.9,283.3,18.8z"/>
	<path d="M283,15c-0.1,0-0.2,0-0.3-0.1c-0.1-0.1-0.2-0.2-0.2-0.4c0-0.1,0-0.2,0-0.3c0-0.1,0.1-0.2,0.2-0.3s0.2-0.2,0.3-0.2
		s0.2-0.1,0.3-0.1c0.2,0,0.4,0.1,0.4,0.2c0.1,0.2,0.1,0.3,0.1,0.6c0,0.1,0,0.2,0,0.4c0,0.2-0.1,0.3-0.1,0.5
		c-0.1,0.2-0.1,0.3-0.2,0.5c-0.1,0.2-0.2,0.3-0.4,0.5c-0.1,0.1-0.1,0.1-0.2,0.1c0,0-0.1,0-0.1,0c0,0,0-0.1,0-0.1c0-0.1,0-0.1,0-0.2
		c0.1-0.1,0.1-0.2,0.2-0.4c0.1-0.2,0.1-0.4,0.1-0.6C283.2,15,283.1,15,283,15C283.1,15,283,15,283,15z"/>
	<path d="M286.6,20.8c0.1,0,0.1,0,0.2,0s0.1,0,0.2-0.1c0.1,0,0.1-0.1,0.2-0.2c0.1-0.1,0.1-0.1,0.1-0.2c0-0.1,0-0.2-0.1-0.4
		c-0.1-0.2-0.1-0.3-0.2-0.5c-0.1-0.2-0.2-0.3-0.3-0.5c-0.1-0.2-0.2-0.3-0.3-0.5c-0.1-0.1-0.1-0.2-0.2-0.3c0-0.1-0.1-0.2-0.1-0.2
		c0-0.1-0.1-0.1-0.1-0.2c0,0.1-0.1,0.2-0.1,0.3c-0.1,0.2-0.1,0.3-0.2,0.5c-0.1,0.2-0.2,0.3-0.2,0.5s-0.1,0.2-0.2,0.3
		c0,0.1-0.1,0.1-0.2,0.2c-0.1,0-0.1,0-0.2,0c0,0-0.1-0.1-0.1-0.1s0-0.1,0-0.3c0-0.1,0.1-0.2,0.1-0.3c0.1-0.2,0.1-0.3,0.2-0.5
		c0.1-0.2,0.1-0.3,0.2-0.4c0.1-0.1,0.1-0.2,0.1-0.2c0-0.1,0-0.1-0.1-0.2c-0.1-0.1-0.1-0.2-0.1-0.3c0-0.1,0.1-0.3,0.1-0.4
		c0.1-0.2,0.2-0.3,0.3-0.5c0.1-0.1,0.3-0.3,0.4-0.4c0.1-0.1,0.3-0.1,0.4-0.1c0.1,0,0.2,0.1,0.3,0.2c0.1,0.1,0.1,0.1,0.1,0.2
		c0,0,0,0.1,0,0.2c0,0.1,0,0.2-0.1,0.3c0,0.1-0.1,0.2-0.2,0.4c0.1,0.2,0.1,0.3,0.2,0.5c0.1,0.1,0.1,0.3,0.2,0.4
		c0.1,0.1,0.1,0.2,0.2,0.3c0.1,0.1,0.2,0.2,0.3,0.4c0.1,0.1,0.2,0.3,0.3,0.4s0.2,0.3,0.2,0.4c0.1,0.1,0.1,0.2,0.1,0.3
		c0,0.1,0,0.3-0.1,0.5c-0.1,0.2-0.2,0.4-0.3,0.6c-0.1,0.2-0.3,0.4-0.5,0.6c-0.2,0.2-0.4,0.3-0.6,0.3c-0.2,0-0.3,0-0.5-0.1
		c-0.2-0.1-0.3-0.2-0.5-0.3s-0.2-0.2-0.3-0.3c-0.1-0.1-0.1-0.2-0.1-0.3c0-0.1,0.1-0.2,0.1-0.2c0-0.1,0.1-0.1,0.1-0.2
		c0,0,0.1-0.1,0.1-0.1c0,0,0.1-0.1,0.1-0.1c0.1,0,0.1-0.1,0.2-0.1c0.1,0.2,0.2,0.4,0.3,0.5s0.2,0.2,0.2,0.3
		C286.5,20.7,286.6,20.8,286.6,20.8z"/>
	<path d="M297.7,18.3c0-0.2-0.1-0.3-0.1-0.6c0-0.2,0-0.4,0-0.7c0-0.2,0-0.5,0-0.7c0-0.2,0-0.4,0-0.6c0-0.2,0-0.4-0.1-0.5
		c-0.1-0.1-0.2-0.1-0.3-0.1c-0.1,0-0.2,0.1-0.3,0.2c-0.2,0.1-0.3,0.4-0.5,0.7c-0.2,0.3-0.3,0.7-0.4,1.2c-0.1,0.5-0.1,1.1-0.1,1.8
		c-0.1,0.1-0.3,0.2-0.4,0.2c-0.1,0-0.1,0.1-0.2,0.1c-0.2,0-0.3,0-0.3,0c-0.1,0-0.1-0.2-0.1-0.4c0-0.1,0-0.3,0.1-0.6
		c0-0.3,0.1-0.5,0.1-0.8c0-0.3,0-0.6,0-0.9c0-0.3,0-0.5-0.1-0.7c0-0.1-0.1-0.2-0.1-0.3c-0.1,0-0.1-0.1-0.2,0c-0.1,0-0.2,0.1-0.3,0.2
		c-0.1,0.1-0.3,0.3-0.4,0.6s-0.3,0.6-0.4,1c-0.1,0.4-0.2,1-0.2,1.6l0,0c0,0.1,0,0.1,0,0.2c0,0.1,0,0.1,0,0.2s0,0.1,0,0.2l-0.5,0.4
		c0,0-0.1,0-0.1,0.1c-0.1,0-0.1,0-0.2,0c-0.1,0-0.1-0.1-0.1-0.1c0-0.1-0.1-0.2-0.1-0.4l0.1-3.1c0-0.1,0-0.2,0-0.3c0-0.1,0-0.2,0-0.3
		c0-0.1,0-0.1-0.1-0.2c0.1-0.1,0.2-0.2,0.3-0.2c0.1-0.1,0.2-0.1,0.2-0.1c0.1,0,0.1-0.1,0.2-0.1c0.2-0.1,0.4,0.1,0.4,0.6
		c0,0.1,0,0.3,0,0.6c0.1-0.2,0.2-0.4,0.4-0.6c0.1-0.2,0.3-0.4,0.4-0.5c0.1-0.2,0.3-0.3,0.4-0.4c0.2-0.1,0.3-0.2,0.5-0.2
		c0.1,0,0.2,0,0.4,0c0.1,0.1,0.2,0.1,0.3,0.3c0.1,0.1,0.1,0.3,0.2,0.4c0,0.2,0.1,0.3,0.1,0.5c0.1-0.2,0.2-0.4,0.3-0.6
		c0.1-0.2,0.2-0.4,0.4-0.5c0.1-0.2,0.3-0.3,0.4-0.4c0.2-0.1,0.3-0.2,0.5-0.2c0.2,0,0.4,0,0.5,0.1c0.1,0.1,0.2,0.2,0.3,0.4
		c0.1,0.2,0.1,0.4,0.2,0.6s0,0.4,0,0.7l-0.1,1.6c0,0.4,0.1,0.6,0.4,0.5c0.2,0,0.4-0.2,0.6-0.4s0.4-0.5,0.5-0.8
		c0.2-0.3,0.3-0.6,0.5-0.9c0.1-0.3,0.3-0.6,0.3-0.7c0-0.1,0.1-0.1,0.1-0.1c0,0,0.1,0,0.1,0c0,0,0.1,0.1,0.1,0.1c0,0.1,0,0.1,0,0.2
		c-0.1,0.3-0.2,0.6-0.4,1c-0.2,0.4-0.3,0.7-0.5,1.1c-0.2,0.3-0.4,0.6-0.7,0.9c-0.3,0.3-0.5,0.4-0.9,0.5c-0.1,0-0.2,0-0.3,0
		s-0.2,0-0.3-0.1c-0.1,0-0.2-0.1-0.3-0.2S297.8,18.5,297.7,18.3z"/>
	<path d="M305.6,14.7c-0.2,0.4-0.4,0.8-0.6,1.1c-0.2,0.4-0.5,0.7-0.7,1s-0.6,0.6-0.9,0.8s-0.6,0.4-0.9,0.4c-0.2,0-0.4,0-0.6,0
		c-0.2,0-0.4-0.1-0.6-0.3c-0.2-0.1-0.4-0.3-0.5-0.6s-0.2-0.6-0.3-1c0-0.3,0-0.7,0.1-1.1c0.1-0.4,0.2-0.7,0.4-1.1
		c0.2-0.3,0.4-0.6,0.7-0.9c0.3-0.3,0.5-0.4,0.9-0.5c0.3-0.1,0.5,0,0.7,0.1s0.3,0.3,0.3,0.5c0,0.2,0,0.5-0.1,0.7
		c-0.1,0.2-0.2,0.4-0.3,0.6c-0.1,0.2-0.3,0.4-0.4,0.5c-0.1,0.2-0.3,0.3-0.4,0.5c-0.1,0.1-0.3,0.3-0.4,0.4c-0.1,0.1-0.2,0.3-0.3,0.4
		c0,0.2,0.1,0.3,0.2,0.5s0.2,0.2,0.3,0.3c0.1,0.1,0.2,0.1,0.4,0.1s0.3,0,0.4,0c0.3-0.1,0.5-0.2,0.8-0.4c0.2-0.2,0.5-0.5,0.7-0.8
		c0.2-0.3,0.4-0.6,0.6-0.9c0.2-0.3,0.3-0.6,0.4-0.8c0-0.1,0.1-0.1,0.1-0.1s0.1,0,0.1,0s0.1,0.1,0.1,0.1S305.7,14.6,305.6,14.7z
		 M302.3,13.6c-0.1,0-0.2,0.1-0.3,0.2c-0.1,0.1-0.2,0.3-0.3,0.5c-0.1,0.2-0.2,0.4-0.2,0.7c-0.1,0.3-0.1,0.6-0.1,0.9
		c0.1-0.1,0.2-0.2,0.3-0.3c0.1-0.1,0.2-0.2,0.3-0.3c0.3-0.3,0.5-0.6,0.5-0.8s0.1-0.4,0.1-0.5c0-0.1-0.1-0.3-0.1-0.3
		C302.5,13.6,302.4,13.6,302.3,13.6z"/>
</g>
</svg>
