<?xml version="1.0" encoding="utf-8"?>
<!-- Generator: Adobe Illustrator 24.3.0, SVG Export Plug-In . SVG Version: 6.00 Build 0)  -->
<svg version="1.1" id="Layer_1" xmlns="http://www.w3.org/2000/svg" xmlns:xlink="http://www.w3.org/1999/xlink" x="0px" y="0px"
	 viewBox="0 0 317.6 322.7" style="enable-background:new 0 0 317.6 322.7;" xml:space="preserve">
<style type="text/css">
	.st0{fill:#969696;}
</style>
<g>
	<path class="st0" d="M21.5,152.3v-57h12.2v25.8l19-25.8h14.1l-20.4,26l21.1,31H52.8l-19.1-29.8v29.8H21.5z"/>
	<path class="st0" d="M69.5,145.1l6.8-7.7c0.9,2.1,2.2,3.8,4.1,5c1.9,1.2,4,1.8,6.4,1.8c2.9,0,5.1-0.7,6.8-2
		c1.7-1.3,2.5-3.2,2.5-5.4c0-2.7-2.8-5.4-8.3-8.1c-1.8-0.9-3.2-1.6-4.2-2.1c-5-2.6-8.4-5.1-10.4-7.6c-1.9-2.5-2.9-5.4-2.9-8.9
		c0-4.7,1.9-8.6,5.6-11.6c3.7-3,8.6-4.5,14.5-4.5c3.5,0,6.4,0.6,8.9,1.8c2.5,1.2,4.7,3.1,6.6,5.7l-7.2,6.9c-0.9-1.7-2-2.9-3.4-3.7
		c-1.4-0.8-3.1-1.2-5.1-1.2c-2.4,0-4.4,0.6-5.8,1.8c-1.5,1.2-2.2,2.8-2.2,4.7c0,3,2.9,5.8,8.8,8.3c1.2,0.5,2.1,0.9,2.7,1.2
		c4.8,2.2,8.4,4.7,10.7,7.5c2.3,2.8,3.5,5.9,3.5,9.5c0,5.3-1.8,9.6-5.5,12.8c-3.6,3.2-8.5,4.8-14.7,4.8c-4.4,0-8.1-0.8-11.2-2.3
		S71,147.9,69.5,145.1z"/>
	<path class="st0" d="M117.8,152.3v-57h12.2v22.8h24.7V95.3h12.2v57h-12.2v-23.8h-24.7v23.8H117.8z"/>
	<path class="st0" d="M179.7,152.3v-57h12.2v57H179.7z"/>
	<path class="st0" d="M226.2,105.7v46.6H214v-46.6h-13.9V95.3h40.1v10.4H226.2z"/>
	<path class="st0" d="M248.4,152.3v-57h12.2v57H248.4z"/>
	<path class="st0" d="M296.7,95.3v37.5c0,4.3-0.2,7.4-0.5,9.4c-0.3,2-0.9,3.7-1.7,5.1c-1.1,2.1-2.8,3.7-5,4.8
		c-2.2,1.1-4.9,1.6-8.1,1.6c-4,0-7.2-1-9.6-3c-2.4-2-3.9-4.9-4.6-8.8l8.8-4.2c0.2,1.8,0.7,3.1,1.4,4c0.7,0.9,1.7,1.4,2.9,1.4
		c1.6,0,2.6-0.6,3.2-1.7c0.6-1.1,0.9-3.7,0.9-7.6v-5.1V95.3H296.7z"/>
	<path class="st0" d="M13.1,222.2L29,180.6h10.2l16.1,41.6H45.1l-3.4-8.8H25.6l-2.9,8.8H13.1z M39.6,206.4L35,192.9
		c-0.1-0.4-0.3-1.1-0.5-2c-0.2-1-0.4-2.2-0.7-3.6c-0.2,1.3-0.5,2.6-0.7,3.6c-0.2,1.1-0.4,1.8-0.5,2.1l-4.5,13.3H39.6z"/>
	<path class="st0" d="M79.2,200.3h19c0,0.2,0.1,0.5,0.1,0.8c0,0.3,0,0.7,0,1.3c0,6.2-1.8,11.3-5.3,15.2c-3.6,3.9-8.2,5.8-13.8,5.8
		c-6.5,0-11.8-2.1-16-6.2c-4.2-4.1-6.3-9.4-6.3-15.7c0-6.3,2.1-11.5,6.3-15.6s9.5-6.2,16-6.2c3.4,0,6.5,0.7,9.3,2.1s5.3,3.5,7.6,6.4
		l-6,4.4c-1.5-1.9-3.1-3.2-4.7-4c-1.6-0.8-3.6-1.2-5.7-1.2c-4.1,0-7.4,1.3-9.9,3.8c-2.5,2.6-3.7,6-3.7,10.3c0,4.2,1.2,7.6,3.7,10.2
		s5.7,3.9,9.7,3.9c2.9,0,5.3-0.7,7.1-2.1c1.8-1.4,2.7-3.2,2.7-5.4v-0.5h-10V200.3z"/>
	<path class="st0" d="M135.5,222.2h-10.3l-10.9-19.5v19.5h-8.9v-41.6h12.7c5.1,0,8.9,1,11.4,2.9c2.5,2,3.8,4.9,3.8,8.9
		c0,2.9-0.9,5.3-2.6,7.3c-1.7,2-4,3.2-6.7,3.6L135.5,222.2z M114.2,198.3h1.3c3.6,0,6-0.4,7.1-1.2c1.2-0.8,1.7-2.2,1.7-4.1
		c0-2-0.6-3.5-1.9-4.4c-1.2-0.9-3.6-1.3-7-1.3h-1.3V198.3z"/>
	<path class="st0" d="M135.7,222.2l15.8-41.6h10.2l16.1,41.6h-10.1l-3.4-8.8h-16.1l-2.9,8.8H135.7z M162.2,206.4l-4.7-13.5
		c-0.1-0.4-0.3-1.1-0.5-2c-0.2-1-0.4-2.2-0.7-3.6c-0.2,1.3-0.5,2.6-0.7,3.6c-0.2,1.1-0.4,1.8-0.5,2.1l-4.5,13.3H162.2z"/>
	<path class="st0" d="M210.1,180.6l6.2,22.6c0.4,1.4,0.8,3,1.1,4.6c0.3,1.6,0.7,3.5,1,5.5c0-1.7,0.2-3.4,0.4-5.1
		c0.2-1.7,0.5-3.4,1-5.1l5.4-22.6h8.8L223,222.2h-8.6l-7.5-26.6c-0.4-1.2-0.6-2.4-0.9-3.7c-0.2-1.2-0.4-2.5-0.4-3.8
		c-0.1,1.4-0.2,2.7-0.4,4c-0.2,1.3-0.5,2.4-0.8,3.5l-7.5,26.6h-8.6l-10.9-41.6h8.9l5.5,23.1c0.3,1.3,0.5,2.8,0.7,4.3
		c0.2,1.5,0.3,3.2,0.4,5c0.4-2.4,1-5.5,2-9.2l0.1-0.6l6.1-22.7H210.1z"/>
	<path class="st0" d="M233.7,222.2l15.8-41.6h10.2l16.1,41.6h-10.1l-3.4-8.8h-16.1l-2.9,8.8H233.7z M260.2,206.4l-4.7-13.5
		c-0.1-0.4-0.3-1.1-0.5-2c-0.2-1-0.4-2.2-0.7-3.6c-0.2,1.3-0.5,2.6-0.7,3.6c-0.2,1.1-0.4,1.8-0.5,2.1l-4.5,13.3H260.2z"/>
	<path class="st0" d="M280.2,222.2v-41.6h8.9v34.1h14.2v7.6H280.2z"/>
</g>
</svg>
